<svg data-v-6e9b645d="" class="sketchy-canvas visible" xmlns="http://www.w3.org/2000/svg" xmlns:xlink="http://www.w3.org/1999/xlink" width="1094" height="929" stroke-linecap="round"><defs><clipPath id="ygc316_1_0"><rect x="25" y="25" width="1043.25" height="878.8" transform="matrix(1 0 0 1 0 0)"/></clipPath></defs><g clip-path="url(#ygc316_1_0)"><path d="M148.197 182.942 M150.835 183.805 C147.772 256.15, 144.928 331.403, 143.449 383.523" stroke="rgb(102, 56, 0)" stroke-width="2.6" fill="none"/></g><g><path d="M135.233 382.817 L143.651 393.213 L155.465 383.403 L133.323 383.88" stroke="none" stroke-width="0" fill="rgb(102, 56, 0)"/><path d="M133.122 384.006 M134.857 382.294 C138.391 388.181, 142.056 390.847, 143.163 394.178 M133.353 383.237 C136.751 385.776, 139.766 389.125, 143.924 392.53 M142.182 393.299 C147.025 390.283, 150.084 386.489, 152.367 384.286 M143.903 392.98 C146.954 390.616, 149.723 386.569, 153.881 384.146 M154.904 383.897 C147.03 382.53, 143.708 382.344, 134.349 381.881 M152.708 383.092 C149.393 383.516, 145.823 382.497, 133.786 382.326" stroke="rgb(102, 56, 0)" stroke-width="1.95" fill="none"/></g><g clip-path="url(#ygc316_1_0)"><path d="M572.617 137.449 M570.82 138.346 C480.554 236.866, 389.021 333.315, 256.627 469.745 M571.671 138.737 C459.818 253.656, 350.16 369.939, 257.205 469.51" stroke="rgb(102, 56, 0)" stroke-width="2.6" fill="none"/></g><g><path d="M250.03 460.932 L250.084 476.437 L265.616 473.434 L251.376 463.497" stroke="none" stroke-width="0" fill="rgb(102, 56, 0)"/><path d="M249.771 460.003 M250.731 462.796 C251.732 465.645, 252.11 471.221, 250.225 477.043 M252.533 474.801 C257.513 475.257, 262.447 474.684, 265.645 474.689 M265.164 476.478 C260.355 472.06, 257.804 468.224, 251.424 463.68" stroke="rgb(102, 56, 0)" stroke-width="1.95" fill="none"/></g><g clip-path="url(#ygc316_1_0)"><path d="M598.978 150.943 M599.001 149.685 C597.354 178.658, 596.843 206.097, 600.198 247.825" stroke="rgb(102, 56, 0)" stroke-width="2.6" fill="none"/></g><g><path d="M588.207 248.822 L597.762 258.795 L608.944 246.797 L590.059 245.425" stroke="none" stroke-width="0" fill="rgb(102, 56, 0)"/><path d="M588.894 248.578 M587.947 246.263 C592.294 250.173, 594.869 255.34, 597.937 256.594 M599.513 258.123 C600.383 253.978, 603.007 251.383, 609.272 247.793 M606.515 247.122 C603.69 248.956, 594.253 246.069, 590.278 246.893" stroke="rgb(102, 56, 0)" stroke-width="1.95" fill="none"/></g><g clip-path="url(#ygc316_1_0)"><path d="M597.233 330.506 M597.728 329.895 C597.581 361.044, 599.438 388.765, 599.937 435.834" stroke="rgb(102, 56, 0)" stroke-width="2.6" fill="none"/></g><g><path d="M590.388 431.988 L597.806 442.557 L609.815 432.317 L587.486 430.583" stroke="none" stroke-width="0" fill="rgb(102, 56, 0)"/><path d="M587.95 433.741 M588.334 431.167 C593.541 436.128, 597.214 440.013, 599.018 443.3 M597 442.533 C600.224 439.627, 603.767 438.835, 608.714 432.001 M606.335 434.331 C604.507 432.077, 596.095 432.462, 589.57 430.673" stroke="rgb(102, 56, 0)" stroke-width="1.95" fill="none"/></g><g clip-path="url(#ygc316_1_0)"><path d="M598.691 515.884 M597.044 515.219 C599.533 543.929, 597.452 570.259, 599.94 619.414" stroke="rgb(102, 56, 0)" stroke-width="2.6" fill="none"/></g><g><path d="M589.8 619.426 L598.614 629.018 L606.291 619.403 L587.609 616.707" stroke="none" stroke-width="0" fill="rgb(102, 56, 0)"/><path d="M589.255 619.449 M589.893 618.286 C591.805 619.666, 594.689 624.927, 597.101 627.634 M598.237 628.019 C601.585 622.976, 605.549 620.262, 607.532 616.554 M606.259 618.255 C601.339 615.686, 596.49 618.155, 587.991 616.645" stroke="rgb(102, 56, 0)" stroke-width="1.95" fill="none"/></g><g clip-path="url(#ygc316_1_0)"><path d="M598.091 701.645 M597.304 703.453 C595.854 735.965, 597.859 768.74, 599.257 803.406" stroke="rgb(102, 56, 0)" stroke-width="2.6" fill="none"/></g><g><path d="M588.334 804.55 L600.002 814.521 L607.725 803.119 L589.38 802.712" stroke="none" stroke-width="0" fill="rgb(102, 56, 0)"/><path d="M589.106 801.609 M587.418 801.947 C590.909 807.571, 595.292 809.154, 597.122 811.802 M588.558 802.787 C590.598 805.933, 593.446 807.477, 598.403 812.449 M597.981 813.697 C600.771 809.709, 602.107 808.093, 608.467 802.193 M597.991 812.694 C601.245 810.422, 603.581 807.206, 608.339 803.279 M608.127 804.122 C599.24 801.553, 592.403 801.41, 587.893 804.173 M608.056 803.509 C601.975 802.722, 596.913 803.585, 588.765 803.143" stroke="rgb(102, 56, 0)" stroke-width="1.95" fill="none"/></g><g clip-path="url(#ygc316_1_0)"><path d="M614.614 818.802 M616.218 816.806 C753.018 556.576, 890.756 297.455, 966.34 156.963" stroke="rgb(102, 56, 0)" stroke-width="2.6" fill="none"/></g><g><path d="M975.172 160.599 L969.858 149.945 L957.693 151.669 L972.706 160.588" stroke="none" stroke-width="0" fill="rgb(102, 56, 0)"/><path d="M975.129 161.398 M973.197 162.113 C972.266 158.152, 970.495 152.78, 971.383 148.525 M971.178 148.572 C966.131 149.653, 963.071 150.049, 957.454 152.419 M957.54 152.81 C960.853 155.669, 969.062 158.24, 972.961 163.656" stroke="rgb(102, 56, 0)" stroke-width="1.95" fill="none"/></g><g clip-path="url(#ygc316_1_0)"><path d="M992.21 602.365 M989.787 602.435 C990.984 464.673, 990.113 329.278, 989.481 157.942" stroke="rgb(102, 56, 0)" stroke-width="2.6" fill="none"/></g><g><path d="M999.664 159.233 L992.25 150.99 L981.7 160.354 L1000.172 161.303" stroke="none" stroke-width="0" fill="rgb(102, 56, 0)"/><path d="M999.945 160.384 M998.838 160.065 C996.055 154.599, 991.451 151.397, 989.989 151.182 M999.508 159.144 C997.608 157.239, 993.815 154.143, 990.588 150.218 M989.512 148.585 C987.661 152.566, 983.086 155.102, 979.509 159.253 M989.872 149.697 C986.27 153.773, 983.192 156.187, 980.189 159.935 M978.9 157.907 C983.609 160.02, 989.31 161.331, 998.952 158.352 M980.208 159.436 C987.478 159.73, 995.625 158.793, 1000.051 159.411" stroke="rgb(102, 56, 0)" stroke-width="1.95" fill="none"/></g><g clip-path="url(#ygc316_1_0)"><path d="M36.661 424.595 L46.214 416.086 L52.201 411.676 L66.959 406.476 L86.639 401.735 L123.4 399.188 L160.391 396.639 L198.759 399.729 L220.462 404.896 L238.106 414.827 L245.862 417.104 L247.857 425.979 L248.711 535.488 L249.261 540.639 L238.541 549.087 L219.549 557.434 L197.43 562.066 L163.835 566.296 L125.145 563.354 L88.326 559.774 L67.502 557.341 L49.41 549.769 L42.857 544.251 L36.69 538.432 L36.33 423.936" stroke="none" stroke-width="0" fill="rgb(210, 222, 238)"/><path d="M38 425.14 M38 425.14 C44.512 388.406, 244.171 386.281, 248.6 425.14 M248.6 425.14 C247.411 451.25, 248.759 476.654, 248.6 537.46 M248.6 537.46 C241.117 573.375, 44.235 573.892, 38 537.46 M38 537.46 C37.423 512.318, 38.884 487.308, 38 425.14" stroke="rgb(0, 0, 0)" stroke-width="2.6" fill="none"/></g><g clip-path="url(#ygc316_1_0)"><path d="M249.911 427.069 L242.663 434.283 L231.723 439.726 L221.164 442.929 L180.281 449.756 L143.417 453.213 L104.9 452.459 L67.644 445.442 L53.97 440.333 L42.771 434.408 L39.321 425.857" stroke="none" stroke-width="0" fill="rgb(210, 222, 238)"/><path d="M248.6 425.14 M248.6 425.14 C241.926 462.403, 44.188 464.144, 38 425.14" stroke="rgb(0, 0, 0)" stroke-width="2.6" fill="none"/></g><g clip-path="url(#ygc316_1_0)"><g class="text-container" transform="matrix(2.6 0 0 2.6 143.3 463.852)"><text font-family="Arial" font-size="12px" font-style="normal" font-weight="normal" text-decoration="none" text-anchor="middle" fill="rgb(0, 0, 0)" fill-opacity="1" dy="0.90625em" transform="" data-sketchy-clip-path="ygc316_1_0" style="font-style: normal;font-weight: 400;font-size: 12px;font-family: Comic Sans MS, cursive;" stroke="none" stroke-width="1px" dominant-baseline="auto">Email-Account</text></g></g><g clip-path="url(#ygc316_1_0)"><path d="M149.144 184.938 L136.781 180.651 L120.812 176.396 L108.539 171.186 L99.319 161.433 L89.149 152.841 L83.44 138.499 L78.952 123.813 L77.909 110.853 L77.933 95.515 L83.374 81.002 L88.957 69.411 L98.456 59.361 L108.586 49.779 L123.132 43.361 L136.186 39.489 L149.867 38.93 L166.41 38.839 L179.565 45.576 L192.663 50.268 L201.959 59.237 L209.519 70.686 L217.52 80.607 L222.741 95.454 L221.923 111.153 L222.99 126.744 L218.964 140.867 L210.465 150.455 L203.045 163.995 L192.875 169.211 L179.505 177.619 L166.733 183.993 L149.166 184.528" stroke="none" stroke-width="0" fill="rgb(210, 222, 238)"/><path d="M151.1 183.6 M151.1 183.6 C110.32 181.859, 78.296 151.421, 78.3 110.8 M151.1 183.6 C111.987 182.488, 78.428 152.875, 78.3 110.8 M78.3 110.8 C78.516 71.863, 111.477 36.736, 151.1 38 M78.3 110.8 C76.079 71.467, 111.929 36.663, 151.1 38 M151.1 38 C192.408 39.457, 225 69.022, 223.9 110.8 M151.1 38 C189.593 37.179, 225.052 70.985, 223.9 110.8 M223.9 110.8 C222.34 151.002, 190.814 182.322, 151.1 183.6 M223.9 110.8 C221.885 149.98, 192.772 183.062, 151.1 183.6 M151.1 183.6 C151.1 183.6, 151.1 183.6, 151.1 183.6 M151.1 183.6 C151.1 183.6, 151.1 183.6, 151.1 183.6" stroke="rgb(0, 0, 0)" stroke-width="2.6" fill="none"/></g><g clip-path="url(#ygc316_1_0)"><g class="text-container" transform="matrix(2.6 0 0 2.6 151.1 93.3516)"><text font-family="Arial" font-size="12px" font-style="normal" font-weight="normal" text-decoration="none" text-anchor="middle" fill="rgb(0, 0, 0)" fill-opacity="1" dy="0.90625em" transform="" data-sketchy-clip-path="ygc316_1_0" style="font-style: normal;font-weight: 400;font-size: 12px;font-family: Comic Sans MS, cursive;" stroke="none" stroke-width="1px" dominant-baseline="auto">Newsletter</text></g></g><g clip-path="url(#ygc316_1_0)"><path d="M597.903 148.825 L584.219 146.937 L571.717 138.52 L560.908 127.511 L559.703 112.699 L561.961 95.672 L569.068 81.925 L582.41 75.837 L596.536 73.347 L614.991 73.869 L625.201 81.363 L635.787 96.628 L637.832 110.813 L635.075 126.229 L625.823 139.027 L611.626 144.915 L598.021 150.613" stroke="none" stroke-width="0" fill="rgb(210, 222, 238)"/><path d="M598.3 149.8 M598.3 149.8 C575.012 150.005, 560.416 133.625, 559.3 110.8 M598.3 149.8 C577.002 150.167, 557.247 131.527, 559.3 110.8 M559.3 110.8 C560.627 91.057, 577.541 73.437, 598.3 71.8 M559.3 110.8 C560.692 91.479, 577.543 71.213, 598.3 71.8 M598.3 71.8 C618.705 72.906, 636.717 89.02, 637.3 110.8 M598.3 71.8 C619.219 71.35, 636.251 88.379, 637.3 110.8 M637.3 110.8 C636.147 132.173, 620.358 149.555, 598.3 149.8 M637.3 110.8 C635.977 130.601, 621.323 147.579, 598.3 149.8 M598.3 149.8 C598.3 149.8, 598.3 149.8, 598.3 149.8 M598.3 149.8 C598.3 149.8, 598.3 149.8, 598.3 149.8" stroke="rgb(0, 0, 0)" stroke-width="2.6" fill="none"/></g><g clip-path="url(#ygc316_1_0)"><g class="text-container" transform="matrix(2.6 0 0 2.6 598.3 93.3516)"><text font-family="Arial" font-size="12px" font-style="normal" font-weight="normal" text-decoration="none" text-anchor="middle" fill="rgb(0, 0, 0)" fill-opacity="1" dy="0.90625em" transform="" data-sketchy-clip-path="ygc316_1_0" style="font-style: normal;font-weight: 400;font-size: 12px;font-family: Comic Sans MS, cursive;" stroke="none" stroke-width="1px" dominant-baseline="auto">mpoprc</text></g></g><g clip-path="url(#ygc316_1_0)"><path d="M531.932 274.368 L535.554 266.998 L545.757 264.972 L586.858 260.912 L633.664 263.718 L656.791 267.57 L662.891 271.372 L664.751 318.737 L661.126 322.926 L648.753 327.889 L609.189 329.025 L565.221 329.302 L538.503 323.904 L535.092 319.83 L534.387 270.821" stroke="none" stroke-width="0" fill="rgb(210, 222, 238)"/><path d="M533.3 272.65 M533.3 272.65 C535.497 255.985, 660.331 255.136, 663.3 272.65 M533.3 272.65 C538.04 258.461, 659.057 258.852, 663.3 272.65 M663.3 272.65 C662.486 288.911, 662.02 303.868, 663.3 319.45 M663.3 272.65 C663.487 288.008, 663.213 302.651, 663.3 319.45 M663.3 319.45 C661.24 333.671, 537.588 335.929, 533.3 319.45 M663.3 319.45 C660.989 334.201, 537.208 333.194, 533.3 319.45 M533.3 319.45 C533.146 306.438, 533.212 295.155, 533.3 272.65 M533.3 319.45 C533.086 309.342, 534.343 299.489, 533.3 272.65" stroke="rgb(0, 0, 0)" stroke-width="2.6" fill="none"/></g><g clip-path="url(#ygc316_1_0)"><path d="M662.32 272.894 L657.093 279.375 L642.178 281.805 L596.709 283.565 L554.309 283.352 L540.64 277.237 L534.582 272.471" stroke="none" stroke-width="0" fill="rgb(210, 222, 238)"/><path d="M663.3 272.65 M663.3 272.65 C657.713 289.756, 538.617 287.714, 533.3 272.65" stroke="rgb(0, 0, 0)" stroke-width="2.6" fill="none"/></g><g clip-path="url(#ygc316_1_0)"><g class="text-container" transform="matrix(2.6 0 0 2.6 598.3 278.602)"><text font-family="Arial" font-size="12px" font-style="normal" font-weight="normal" text-decoration="none" text-anchor="middle" fill="rgb(0, 0, 0)" fill-opacity="1" dy="0.90625em" transform="" data-sketchy-clip-path="ygc316_1_0" style="font-style: normal;font-weight: 400;font-size: 12px;font-family: Comic Sans MS, cursive;" stroke="none" stroke-width="1px" dominant-baseline="auto">mbox file</text></g></g><g clip-path="url(#ygc316_1_0)"><path d="M531.759 458.393 L536.724 453.225 L547.864 451.768 L588.238 447.451 L630.402 446.169 L654.847 451.521 L661.92 459.827 L664.296 504.976 L658.175 510.003 L651.051 511.268 L609.759 516.213 L563.046 513.721 L539.59 510.712 L532.874 505.154 L535.136 456.725" stroke="none" stroke-width="0" fill="rgb(210, 222, 238)"/><path d="M533.3 457.9 M533.3 457.9 C536.482 440.452, 660.5 440.559, 663.3 457.9 M533.3 457.9 C535.034 443.945, 658.124 441.032, 663.3 457.9 M663.3 457.9 C663.685 472.087, 662.334 481.455, 663.3 504.7 M663.3 457.9 C663.269 471.173, 662.36 482.317, 663.3 504.7 M663.3 504.7 C658.02 520.029, 537.803 519.076, 533.3 504.7 M663.3 504.7 C659.036 518.369, 536.863 522.085, 533.3 504.7 M533.3 504.7 C534.384 485.937, 531.451 471.078, 533.3 457.9 M533.3 504.7 C533.126 490.248, 533.418 477.071, 533.3 457.9" stroke="rgb(0, 0, 0)" stroke-width="2.6" fill="none"/></g><g clip-path="url(#ygc316_1_0)"><path d="M661.578 457.955 L658.501 462.605 L641.073 467.36 L597.181 468.369 L554.538 468.215 L541.611 464.186 L533.261 456.711" stroke="none" stroke-width="0" fill="rgb(210, 222, 238)"/><path d="M663.3 457.9 M663.3 457.9 C660.909 475.377, 537.643 475.408, 533.3 457.9 M663.3 457.9 C658.367 474.349, 534.918 472.92, 533.3 457.9" stroke="rgb(0, 0, 0)" stroke-width="2.6" fill="none"/></g><g clip-path="url(#ygc316_1_0)"><g class="text-container" transform="matrix(2.6 0 0 2.6 598.3 463.852)"><text font-family="Arial" font-size="12px" font-style="normal" font-weight="normal" text-decoration="none" text-anchor="middle" fill="rgb(0, 0, 0)" fill-opacity="1" dy="0.90625em" transform="" data-sketchy-clip-path="ygc316_1_0" style="font-style: normal;font-weight: 400;font-size: 12px;font-family: Comic Sans MS, cursive;" stroke="none" stroke-width="1px" dominant-baseline="auto">dataset</text></g></g><g clip-path="url(#ygc316_1_0)"><path d="M532.567 641.81 L537.658 640.963 L544.638 636.628 L587.012 632.749 L633.256 634.361 L655.599 637.518 L662.653 642.683 L664.133 691.025 L658.297 693.041 L649.786 698.921 L609.596 701.887 L566.358 700.448 L541.046 694.673 L534.07 688.31 L535.19 643.203" stroke="none" stroke-width="0" fill="rgb(210, 222, 238)"/><path d="M533.3 643.15 M533.3 643.15 C535.333 625.988, 661.051 626.802, 663.3 643.15 M533.3 643.15 C538.363 629.186, 657.154 627.104, 663.3 643.15 M663.3 643.15 C662.612 658.315, 664.622 670.979, 663.3 689.95 M663.3 643.15 C663.353 657.841, 663.522 672.238, 663.3 689.95 M663.3 689.95 C660.852 706.139, 536.767 707.331, 533.3 689.95 M663.3 689.95 C660.261 706.303, 535.39 706.844, 533.3 689.95 M533.3 689.95 C534.23 676.008, 532.44 664.251, 533.3 643.15 M533.3 689.95 C534.219 673.397, 533.171 658.555, 533.3 643.15" stroke="rgb(0, 0, 0)" stroke-width="2.6" fill="none"/></g><g clip-path="url(#ygc316_1_0)"><path d="M662.094 643.604 L658.728 649.563 L640.858 651.59 L599.509 653.523 L555.903 652.382 L540.525 646.363 L534.947 642.413" stroke="none" stroke-width="0" fill="rgb(210, 222, 238)"/><path d="M663.3 643.15 M663.3 643.15 C661.355 660.599, 536.587 657.464, 533.3 643.15" stroke="rgb(0, 0, 0)" stroke-width="2.6" fill="none"/></g><g clip-path="url(#ygc316_1_0)"><g class="text-container" transform="matrix(2.6 0 0 2.6 598.3 649.102)"><text font-family="Arial" font-size="12px" font-style="normal" font-weight="normal" text-decoration="none" text-anchor="middle" fill="rgb(0, 0, 0)" fill-opacity="1" dy="0.90625em" transform="" data-sketchy-clip-path="ygc316_1_0" style="font-style: normal;font-weight: 400;font-size: 12px;font-family: Comic Sans MS, cursive;" stroke="none" stroke-width="1px" dominant-baseline="auto">final dataset</text></g></g><g clip-path="url(#ygc316_1_0)"><path d="M533.54 826.513 L535.717 823.361 L548.117 822.51 L584.996 818.54 L630.43 819.004 L658.053 823.905 L663.529 830.121 L662.739 875.365 L660.405 880.423 L651.844 880.679 L611.833 888.178 L564.073 885.622 L541.122 879.905 L532.494 874.92 L531.651 828.293" stroke="none" stroke-width="0" fill="rgb(210, 222, 238)"/><path d="M533.3 828.4 M533.3 828.4 C538.547 813.154, 659.352 812.033, 663.3 828.4 M663.3 828.4 C663.489 843.317, 664.2 857.608, 663.3 875.2 M663.3 875.2 C660.559 890.376, 538.401 889.843, 533.3 875.2 M533.3 875.2 C532.735 863.219, 534.005 850.546, 533.3 828.4" stroke="rgb(0, 0, 0)" stroke-width="2.6" fill="none"/></g><g clip-path="url(#ygc316_1_0)"><path d="M664.569 828.957 L655.768 831.635 L640.131 838.722 L596.665 841.672 L553.984 838.283 L537.851 835.324 L533.283 827.161" stroke="none" stroke-width="0" fill="rgb(210, 222, 238)"/><path d="M663.3 828.4 M663.3 828.4 C660.775 843.401, 538.292 843.609, 533.3 828.4" stroke="rgb(0, 0, 0)" stroke-width="2.6" fill="none"/></g><g clip-path="url(#ygc316_1_0)"><g class="text-container" transform="matrix(2.6 0 0 2.6 598.3 834.352)"><text font-family="Arial" font-size="12px" font-style="normal" font-weight="normal" text-decoration="none" text-anchor="middle" fill="rgb(0, 0, 0)" fill-opacity="1" dy="0.90625em" transform="" data-sketchy-clip-path="ygc316_1_0" style="font-style: normal;font-weight: 400;font-size: 12px;font-family: Comic Sans MS, cursive;" stroke="none" stroke-width="1px" dominant-baseline="auto">summary (iCalendar)</text></g></g><g clip-path="url(#ygc316_1_0)"><path d="M924.83 88.663 L927.285 83.715 L938.977 78.531 L977.942 74.078 L1026.016 75.413 L1047.848 83.001 L1053.272 88.379 L1054.155 134.307 L1050.88 138.754 L1044.109 142.112 L1001.056 145.159 L958.309 145.61 L932.608 138.918 L925.026 134.23 L925.588 89.137" stroke="none" stroke-width="0" fill="rgb(210, 222, 238)"/><path d="M925.25 87.4 M925.25 87.4 C929.391 70.721, 1051.512 71.038, 1055.25 87.4 M1055.25 87.4 C1053.96 104.52, 1055.974 122.063, 1055.25 134.2 M1055.25 134.2 C1050.121 148.041, 927.545 149.828, 925.25 134.2 M925.25 134.2 C925.039 119.014, 925.475 102.247, 925.25 87.4" stroke="rgb(0, 0, 0)" stroke-width="2.6" fill="none"/></g><g clip-path="url(#ygc316_1_0)"><path d="M1054.801 88.798 L1047.631 94.272 L1035.207 97.582 L988.419 100.578 L948.485 94.908 L933.753 91.056 L924.106 87.606" stroke="none" stroke-width="0" fill="rgb(210, 222, 238)"/><path d="M1055.25 87.4 M1055.25 87.4 C1052.427 104.619, 930.081 104.14, 925.25 87.4" stroke="rgb(0, 0, 0)" stroke-width="2.6" fill="none"/></g><g clip-path="url(#ygc316_1_0)"><g class="text-container" transform="matrix(2.6 0 0 2.6 990.25 93.3516)"><text font-family="Arial" font-size="12px" font-style="normal" font-weight="normal" text-decoration="none" text-anchor="middle" fill="rgb(0, 0, 0)" fill-opacity="1" dy="0.90625em" transform="" data-sketchy-clip-path="ygc316_1_0" style="font-style: normal;font-weight: 400;font-size: 12px;font-family: Comic Sans MS, cursive;" stroke="none" stroke-width="1px" dominant-baseline="auto">Calendar</text></g></g><g clip-path="url(#ygc316_1_0)"><path d="M988.752 732.946 L975.295 731.166 L966.368 725.688 L953.567 719.429 L943.651 711.681 L937.27 703.907 L930.264 693.175 L927.139 679.454 L926.386 668.274 L926.904 653.458 L930.834 641.848 L936.299 629.181 L945.988 619.245 L955.283 614.331 L966.462 608.648 L977.409 601.068 L988.299 601.375 L1001.72 601.051 L1015.608 604.71 L1024.86 610.992 L1037.231 618.972 L1043.984 630.239 L1048.967 639.683 L1052.786 653.817 L1054.418 664.709 L1054.322 678.507 L1048.698 690.477 L1044.669 704.118 L1037.905 710.743 L1026.254 719.657 L1016.821 724.651 L1005.226 731.848 L988.534 731.893" stroke="none" stroke-width="0" fill="rgb(210, 222, 238)"/><path d="M990.25 731.55 M990.25 731.55 C952.782 732.211, 924.858 701.391, 925.25 666.55 M925.25 666.55 C925.549 630.969, 956.073 603.116, 990.25 601.55 M990.25 601.55 C1027.199 600.556, 1054.925 631.186, 1055.25 666.55 M1055.25 666.55 C1054.633 703.185, 1026.454 731.466, 990.25 731.55 M990.25 731.55 C990.25 731.55, 990.25 731.55, 990.25 731.55" stroke="rgb(0, 0, 0)" stroke-width="2.6" fill="none"/></g><g clip-path="url(#ygc316_1_0)"><g class="text-container" transform="matrix(2.6 0 0 2.6 990.25 649.102)"><text font-family="Arial" font-size="12px" font-style="normal" font-weight="normal" text-decoration="none" text-anchor="middle" fill="rgb(0, 0, 0)" fill-opacity="1" dy="0.90625em" transform="" data-sketchy-clip-path="ygc316_1_0" style="font-style: normal;font-weight: 400;font-size: 12px;font-family: Comic Sans MS, cursive;" stroke="none" stroke-width="1px" dominant-baseline="auto">client</text></g></g><g clip-path="url(#ygc316_1_0)"><g class="text-container" transform="matrix(0.07026 -2.59905 2.59905 0.07026 97.7856 282.744)"><text font-family="Arial" font-size="12px" font-style="normal" font-weight="normal" text-decoration="none" text-anchor="middle" fill="rgb(0, 0, 0)" fill-opacity="1" dy="0.90625em" transform="" data-sketchy-clip-path="ygc316_1_0" style="font-style: normal;font-weight: 400;font-size: 12px;font-family: Comic Sans MS, cursive;" stroke="none" stroke-width="1px" dominant-baseline="auto">Sends emails</text></g></g><g clip-path="url(#ygc316_1_0)"><g class="text-container" transform="matrix(1.79145 -1.88433 1.88433 1.79145 379.039 270.823)"><text font-family="Arial" font-size="12px" font-style="normal" font-weight="normal" text-decoration="none" text-anchor="middle" fill="rgb(0, 0, 0)" fill-opacity="1" dy="0.90625em" transform="" data-sketchy-clip-path="ygc316_1_0" style="font-style: normal;font-weight: 400;font-size: 12px;font-family: Comic Sans MS, cursive;" stroke="none" stroke-width="1px" dominant-baseline="auto">Pops emails</text></g></g><g clip-path="url(#ygc316_1_0)"><g class="text-container" transform="matrix(2.6 3.18408e-16 -3.18408e-16 2.6 520.3 196.529)"><text font-family="Arial" font-size="12px" font-style="normal" font-weight="normal" text-decoration="none" text-anchor="middle" fill="rgb(0, 0, 0)" fill-opacity="1" dy="0.90625em" transform="" data-sketchy-clip-path="ygc316_1_0" style="font-style: normal;font-weight: 400;font-size: 12px;font-family: Comic Sans MS, cursive;" stroke="none" stroke-width="1px" dominant-baseline="auto">produces</text></g></g><g clip-path="url(#ygc316_1_0)"><g class="text-container" transform="matrix(2.6 3.18408e-16 -3.18408e-16 2.6 516.4 379.663)"><text font-family="Arial" font-size="12px" font-style="normal" font-weight="normal" text-decoration="none" text-anchor="middle" fill="rgb(0, 0, 0)" fill-opacity="1" dy="0.90625em" transform="" data-sketchy-clip-path="ygc316_1_0" style="font-style: normal;font-weight: 400;font-size: 12px;font-family: Comic Sans MS, cursive;" stroke="none" stroke-width="1px" dominant-baseline="auto">converted</text></g></g><g clip-path="url(#ygc316_1_0)"><g class="text-container" transform="matrix(2.6 3.18408e-16 -3.18408e-16 2.6 456.6 550.302)"><text font-family="Arial" font-size="12px" font-style="normal" font-weight="normal" text-decoration="none" text-anchor="middle" fill="rgb(0, 0, 0)" fill-opacity="1" dy="0.90625em" transform="" data-sketchy-clip-path="ygc316_1_0" style="font-style: normal;font-weight: 400;font-size: 12px;font-family: Comic Sans MS, cursive;" stroke="none" stroke-width="1px" dominant-baseline="auto">filtered, moderated</text></g></g><g clip-path="url(#ygc316_1_0)"><g class="text-container" transform="matrix(2.6 3.18408e-16 -3.18408e-16 2.6 425.4 735.552)"><text font-family="Arial" font-size="12px" font-style="normal" font-weight="normal" text-decoration="none" text-anchor="middle" fill="rgb(0, 0, 0)" fill-opacity="1" dy="0.90625em" transform="" data-sketchy-clip-path="ygc316_1_0" style="font-style: normal;font-weight: 400;font-size: 12px;font-family: Comic Sans MS, cursive;" stroke="none" stroke-width="1px" dominant-baseline="auto">prompted via ChatGPT</text></g></g><g clip-path="url(#ygc316_1_0)"><g class="text-container" transform="matrix(1.21567 -2.29829 2.29829 1.21567 803.544 493.188)"><text font-family="Arial" font-size="12px" font-style="normal" font-weight="normal" text-decoration="none" text-anchor="middle" fill="rgb(0, 0, 0)" fill-opacity="1" dy="0.90625em" transform="" data-sketchy-clip-path="ygc316_1_0" style="font-style: normal;font-weight: 400;font-size: 12px;font-family: Comic Sans MS, cursive;" stroke="none" stroke-width="1px" dominant-baseline="auto">merged events</text></g></g><g clip-path="url(#ygc316_1_0)"><g class="text-container" transform="matrix(1.59204e-16 -2.6 2.6 1.59204e-16 1004 379.9)"><text font-family="Arial" font-size="12px" font-style="normal" font-weight="normal" text-decoration="none" text-anchor="middle" fill="rgb(0, 0, 0)" fill-opacity="1" dy="0.90625em" transform="" data-sketchy-clip-path="ygc316_1_0" style="font-style: normal;font-weight: 400;font-size: 12px;font-family: Comic Sans MS, cursive;" stroke="none" stroke-width="1px" dominant-baseline="auto">subscribes (raw content)</text></g></g></svg>