<svg data-v-6e9b645d="" class="sketchy-canvas visible" xmlns="http://www.w3.org/2000/svg" xmlns:xlink="http://www.w3.org/1999/xlink" width="371" height="321" stroke-linecap="round"><defs><clipPath id="ygc312_1_0"><rect x="25" y="25" width="321" height="270.4" transform="matrix(1 0 0 1 0 0)"/></clipPath></defs><g clip-path="url(#ygc312_1_0)"><path d="M63.372 75.682 M64.221 73.763 C62.318 94.053, 62.859 108.639, 60.459 134.147" stroke="rgb(102, 56, 0)" stroke-width="0.8" fill="none"/></g><g><path d="M57.845 136.446 L62.194 139.411 L65.032 136.922 L56.547 135.296" stroke="none" stroke-width="0" fill="rgb(102, 56, 0)"/><path d="M57.024 135.835 M58.406 134.932 C59.398 135.484, 59.38 136.056, 61.867 138.331 M58.352 135.233 C59.25 136.25, 60.243 136.998, 61.348 138.262 M61.718 137.84 C62.649 136.807, 63.852 136.351, 64.791 135.584 M61.551 138.43 C62.356 137.219, 63.712 136.394, 64.423 135.381 M64.228 134.754 C61.704 135.83, 59.961 135.377, 58.516 134.616 M64.232 135.614 C63.083 135.214, 61.399 135.211, 58.334 135.327" stroke="rgb(102, 56, 0)" stroke-width="0.6" fill="none"/></g><g clip-path="url(#ygc312_1_0)"><path d="M191.26 58.76 M191.809 62.053 C160.76 95.462, 129.989 127.282, 97.663 160.687 M192.512 59.88 C164.294 89.672, 135.181 121.893, 96.776 162.636" stroke="rgb(102, 56, 0)" stroke-width="0.8" fill="none"/></g><g><path d="M94.157 160.116 L94.913 163.022 L97.202 162.33 L95.416 160.65" stroke="none" stroke-width="0" fill="rgb(102, 56, 0)"/><path d="M93.056 160.72 M94.742 159.816 C94.645 160.594, 94.586 161.482, 94.363 163.409 M94.677 159.269 C94.361 160.317, 94.558 161.068, 94.568 163.897 M94.577 163.625 C95.323 163.886, 96.517 164.001, 98.703 163.381 M94.639 163.495 C96.145 163.823, 97.84 163.601, 98.907 163.62 M98.289 163.987 C97.317 162.223, 96.935 162.074, 94.34 159.033 M98.83 163.845 C97.692 162.845, 96.929 161.714, 94.834 159.502" stroke="rgb(102, 56, 0)" stroke-width="0.6" fill="none"/></g><g clip-path="url(#ygc312_1_0)"><path d="M200.523 64.339 M202.787 61.684 C202.196 70.79, 202.306 75.459, 203.005 92.417" stroke="rgb(102, 56, 0)" stroke-width="0.8" fill="none"/></g><g><path d="M197.454 93.494 L201.526 95.652 L202.51 94.244 L196.959 92.854" stroke="none" stroke-width="0" fill="rgb(102, 56, 0)"/><path d="M199.532 95.206 M198.804 92.984 C199.698 94.031, 200.14 95.128, 201.748 95.978 M198.24 93.515 C199.114 94.272, 199.761 94.919, 201.606 96.279 M201.779 96.699 C202.713 95.529, 202.891 94.982, 204.751 93.207 M201.282 96.462 C202.068 95.555, 202.687 95.092, 204.601 93.468 M203.93 93.545 C202.07 93.193, 200.724 93.918, 197.936 92.844 M204.269 93.317 C202.567 93.136, 201.471 93.246, 198.345 93.496" stroke="rgb(102, 56, 0)" stroke-width="0.6" fill="none"/></g><g clip-path="url(#ygc312_1_0)"><path d="M200.716 121.146 M202.041 120.802 C200.368 128.538, 200.895 136.835, 203.322 149.195 M201.141 119.173 C200.484 130.082, 201.136 141.289, 202.053 151.345" stroke="rgb(102, 56, 0)" stroke-width="0.8" fill="none"/></g><g><path d="M196.984 148.797 L199.98 153.286 L203.819 149.46 L199.769 150.264" stroke="none" stroke-width="0" fill="rgb(102, 56, 0)"/><path d="M199.075 152.064 M198.188 150.119 C198.749 151.048, 199.359 151.287, 201.462 153.751 M201.608 153.009 C201.975 152.339, 202.572 151.944, 204.484 150.545 M203.982 150.198 C202.243 150.957, 200.553 149.986, 198.109 150.961" stroke="rgb(102, 56, 0)" stroke-width="0.6" fill="none"/></g><g clip-path="url(#ygc312_1_0)"><path d="M202.846 175.809 M200.525 177.259 C200.499 183.882, 202.023 192.81, 199.616 208.328" stroke="rgb(102, 56, 0)" stroke-width="0.8" fill="none"/></g><g><path d="M196.571 208.922 L202.629 209.248 L206.048 206.606 L196.639 206.328" stroke="none" stroke-width="0" fill="rgb(102, 56, 0)"/><path d="M198.036 207.905 M198.368 207.416 C199.567 208.142, 200.175 209.294, 201.083 210.505 M198.196 207.443 C198.99 208.336, 199.901 209.093, 201.193 210.239 M201.286 210.024 C202.353 209.517, 203.398 209.015, 204.413 207.586 M201.194 210.403 C202.111 209.569, 202.735 208.984, 204.223 207.539 M204.835 207.233 C202.306 206.807, 201.083 207.489, 198.719 207.151 M204.335 207.652 C202.629 207.223, 200.577 207.123, 198.178 207.289" stroke="rgb(102, 56, 0)" stroke-width="0.6" fill="none"/></g><g clip-path="url(#ygc312_1_0)"><path d="M201.177 232.139 M200.543 231.391 C200.457 240.037, 201.547 251.09, 202.166 265.005 M201.657 233.075 C200.728 242.977, 200.812 252.263, 201.758 264.378" stroke="rgb(102, 56, 0)" stroke-width="0.8" fill="none"/></g><g><path d="M199.127 264.38 L200.945 268.996 L202.944 264.002 L197.143 266.175" stroke="none" stroke-width="0" fill="rgb(102, 56, 0)"/><path d="M200.08 264.909 M198.243 263.968 C199.398 265.367, 200.086 266.528, 201.553 267.281 M201.612 267.271 C202.039 266.362, 203.204 265.817, 204.38 264.776 M204.165 264.039 C202.845 264.039, 200.439 264.37, 198.387 264.491" stroke="rgb(102, 56, 0)" stroke-width="0.6" fill="none"/></g><g clip-path="url(#ygc312_1_0)"><path d="M207.063 270.518 M207.929 269.799 C245.109 193.773, 285.271 116.646, 313.143 65.069" stroke="rgb(102, 56, 0)" stroke-width="0.8" fill="none"/></g><g><path d="M315.8 66.805 L316.969 62.453 L313.094 63.665 L316.21 66.62" stroke="none" stroke-width="0" fill="rgb(102, 56, 0)"/><path d="M317.367 65.533 M316.725 67.259 C316.799 65.675, 316.306 64.359, 315.769 62.909 M315.774 63.495 C314.748 63.724, 312.6 64.017, 311.509 64.128 M311.883 64.931 C313.177 65.66, 314.759 65.624, 317.313 66.72" stroke="rgb(102, 56, 0)" stroke-width="0.6" fill="none"/></g><g clip-path="url(#ygc312_1_0)"><path d="M321.014 202.409 M320.844 200.759 C322.463 163.745, 321.642 123.192, 320.823 67.668" stroke="rgb(102, 56, 0)" stroke-width="0.8" fill="none"/></g><g><path d="M326.179 64.813 L320.609 61.859 L319.584 66.744 L324.338 66.214" stroke="none" stroke-width="0" fill="rgb(102, 56, 0)"/><path d="M325.828 64.949 M325.036 66.161 C323.941 65.004, 322.902 64.101, 321.878 63.018 M324.971 66.587 C323.929 65.512, 323.174 64.726, 322.033 63.364 M321.725 63.229 C321.083 64.096, 319.863 65.808, 318.855 66.159 M322.019 63.546 C320.841 64.682, 319.822 65.622, 319.073 66.365 M318.796 66.379 C320.89 66.318, 322.586 66.724, 324.986 66.013 M319.145 66.619 C321.188 66.557, 323.268 66.512, 324.87 66.556" stroke="rgb(102, 56, 0)" stroke-width="0.6" fill="none"/></g><g clip-path="url(#ygc312_1_0)"><path d="M30.416 146.282 L35.396 143.764 L49.041 140.949 L74.598 140.436 L91.424 142.946 L92.264 147.638 L93.715 185.731 L82.144 187.666 L63.12 190.406 L45.773 188.731 L32.9 185.275 L27.332 180.96 L29.969 147.614" stroke="none" stroke-width="0" fill="rgb(210, 222, 238)"/><path d="M29 148.12 M29 148.12 C31.1 137.408, 92.535 134.955, 93.8 148.12 M93.8 148.12 C93.334 157.874, 92.666 163.916, 93.8 182.68 M93.8 182.68 C90.746 195.267, 32.318 196.102, 29 182.68 M29 182.68 C30.071 171.248, 30.659 163.062, 29 148.12" stroke="rgb(0, 0, 0)" stroke-width="0.8" fill="none"/></g><g clip-path="url(#ygc312_1_0)"><path d="M95.204 149.01 L91.528 152.924 L83.279 155.294 L61.855 155.798 L40.654 154.254 L32.557 150.249 L30.922 150.114" stroke="none" stroke-width="0" fill="rgb(210, 222, 238)"/><path d="M93.8 148.12 M93.8 148.12 C92.432 159.942, 29.814 159.219, 29 148.12" stroke="rgb(0, 0, 0)" stroke-width="0.8" fill="none"/></g><g clip-path="url(#ygc312_1_0)"><g class="text-container" transform="matrix(0.8 0 0 0.8 61.4 160.031)"><text font-family="Arial" font-size="12px" font-style="normal" font-weight="normal" text-decoration="none" text-anchor="middle" fill="rgb(0, 0, 0)" fill-opacity="1" dy="0.90625em" transform="" data-sketchy-clip-path="ygc312_1_0" style="font-style: normal;font-weight: 400;font-size: 12px;font-family: Comic Sans MS, cursive;" stroke="none" stroke-width="1px" dominant-baseline="auto">Email-Account</text></g></g><g clip-path="url(#ygc312_1_0)"><path d="M63.738 74.03 L53.12 73.135 L49.36 67.966 L42.177 59.659 L41.364 50.127 L44.704 42.922 L46.712 36.614 L54.689 28.959 L64.59 30.428 L70.78 32.659 L81.341 35.477 L85.718 44.456 L86.404 50.461 L84.483 59.381 L77.906 68.895 L73.06 71.541 L63.839 71.904" stroke="none" stroke-width="0" fill="rgb(210, 222, 238)"/><path d="M63.8 73.8 M63.8 73.8 C52.857 75.586, 42.428 65.684, 41.4 51.4 M41.4 51.4 C41.884 40.008, 52.13 29.354, 63.8 29 M63.8 29 C75.803 29.617, 87.106 37.317, 86.2 51.4 M86.2 51.4 C87.878 62.326, 74.926 75.187, 63.8 73.8 M63.8 73.8 C63.8 73.8, 63.8 73.8, 63.8 73.8" stroke="rgb(0, 0, 0)" stroke-width="0.8" fill="none"/></g><g clip-path="url(#ygc312_1_0)"><g class="text-container" transform="matrix(0.8 0 0 0.8 63.8 46.0312)"><text font-family="Arial" font-size="12px" font-style="normal" font-weight="normal" text-decoration="none" text-anchor="middle" fill="rgb(0, 0, 0)" fill-opacity="1" dy="0.90625em" transform="" data-sketchy-clip-path="ygc312_1_0" style="font-style: normal;font-weight: 400;font-size: 12px;font-family: Comic Sans MS, cursive;" stroke="none" stroke-width="1px" dominant-baseline="auto">Newsletter</text></g></g><g clip-path="url(#ygc312_1_0)"><path d="M200.083 63.496 L191.395 61.423 L191.068 50.409 L194.385 41.382 L199.44 37.861 L211.626 44.251 L214.459 52.435 L208.355 60.581 L202.6 65.139" stroke="none" stroke-width="0" fill="rgb(210, 222, 238)"/><path d="M201.4 63.4 M201.4 63.4 C194.369 61.777, 187.986 59.535, 189.4 51.4 M201.4 63.4 C194.225 62.606, 191.489 59.2, 189.4 51.4 M189.4 51.4 C189.989 45.965, 195.573 41.37, 201.4 39.4 M189.4 51.4 C190.885 42.869, 194.356 37.459, 201.4 39.4 M201.4 39.4 C208.874 38.695, 211.68 44.322, 213.4 51.4 M201.4 39.4 C206.365 39.449, 211.89 46.676, 213.4 51.4 M213.4 51.4 C212.138 57.572, 206.692 64.11, 201.4 63.4 M213.4 51.4 C213.08 59.81, 206.414 64.21, 201.4 63.4 M201.4 63.4 C201.4 63.4, 201.4 63.4, 201.4 63.4 M201.4 63.4 C201.4 63.4, 201.4 63.4, 201.4 63.4" stroke="rgb(0, 0, 0)" stroke-width="0.8" fill="none"/></g><g clip-path="url(#ygc312_1_0)"><g class="text-container" transform="matrix(0.8 0 0 0.8 201.4 46.0312)"><text font-family="Arial" font-size="12px" font-style="normal" font-weight="normal" text-decoration="none" text-anchor="middle" fill="rgb(0, 0, 0)" fill-opacity="1" dy="0.90625em" transform="" data-sketchy-clip-path="ygc312_1_0" style="font-style: normal;font-weight: 400;font-size: 12px;font-family: Comic Sans MS, cursive;" stroke="none" stroke-width="1px" dominant-baseline="auto">mpoprc</text></g></g><g clip-path="url(#ygc312_1_0)"><path d="M179.959 101.46 L187.391 98.058 L195.691 98.295 L207.576 97.768 L220.426 99.114 L221.319 102.482 L222.281 116.183 L219.212 119.288 L208.683 117.986 L195.989 117.805 L184.39 117.264 L179.498 115.285 L180.48 100.708" stroke="none" stroke-width="0" fill="rgb(210, 222, 238)"/><path d="M181.4 101.2 M181.4 101.2 C180.72 96.682, 221.825 95.732, 221.4 101.2 M221.4 101.2 C222.308 104.892, 220.245 110.144, 221.4 115.6 M221.4 115.6 C220.36 119.337, 181.743 119.173, 181.4 115.6 M181.4 115.6 C182.461 113.066, 181.759 108.555, 181.4 101.2" stroke="rgb(0, 0, 0)" stroke-width="0.8" fill="none"/></g><g clip-path="url(#ygc312_1_0)"><path d="M221.19 99.531 L216.11 103.652 L201.097 106.256 L186.461 104.778 L181.373 101.546" stroke="none" stroke-width="0" fill="rgb(210, 222, 238)"/><path d="M221.4 101.2 M221.4 101.2 C221.823 107.488, 184.054 106.854, 181.4 101.2 M221.4 101.2 C221.245 105.984, 180.339 108.06, 181.4 101.2" stroke="rgb(0, 0, 0)" stroke-width="0.8" fill="none"/></g><g clip-path="url(#ygc312_1_0)"><g class="text-container" transform="matrix(0.8 0 0 0.8 201.4 103.031)"><text font-family="Arial" font-size="12px" font-style="normal" font-weight="normal" text-decoration="none" text-anchor="middle" fill="rgb(0, 0, 0)" fill-opacity="1" dy="0.90625em" transform="" data-sketchy-clip-path="ygc312_1_0" style="font-style: normal;font-weight: 400;font-size: 12px;font-family: Comic Sans MS, cursive;" stroke="none" stroke-width="1px" dominant-baseline="auto">mbox file</text></g></g><g clip-path="url(#ygc312_1_0)"><path d="M179.6 160.182 L187.288 157.042 L195.193 154.23 L208.258 155.577 L219.508 154.948 L220.218 157.829 L222.767 173.442 L216.879 173.805 L207.294 175.729 L192.6 175.589 L184.577 173.05 L180.207 172.488 L182.672 157.92" stroke="none" stroke-width="0" fill="rgb(210, 222, 238)"/><path d="M181.4 158.2 M181.4 158.2 C182.696 153.293, 221.9 153.963, 221.4 158.2 M181.4 158.2 C182.714 152.598, 218.55 154.013, 221.4 158.2 M221.4 158.2 C222.055 162.392, 221.393 165.715, 221.4 172.6 M221.4 158.2 C221.54 163.433, 221.085 167.739, 221.4 172.6 M221.4 172.6 C222.135 177.963, 181.587 179.29, 181.4 172.6 M221.4 172.6 C219.027 176.929, 183.327 177.566, 181.4 172.6 M181.4 172.6 C181.415 168.625, 180.833 164.349, 181.4 158.2 M181.4 172.6 C182.173 167.405, 181.412 161.095, 181.4 158.2" stroke="rgb(0, 0, 0)" stroke-width="0.8" fill="none"/></g><g clip-path="url(#ygc312_1_0)"><path d="M223.044 157.348 L213.871 162.751 L202.489 163.621 L188.671 161.169 L182.288 157.464" stroke="none" stroke-width="0" fill="rgb(210, 222, 238)"/><path d="M221.4 158.2 M221.4 158.2 C220.717 163.177, 181.84 162.1, 181.4 158.2" stroke="rgb(0, 0, 0)" stroke-width="0.8" fill="none"/></g><g clip-path="url(#ygc312_1_0)"><g class="text-container" transform="matrix(0.8 0 0 0.8 201.4 160.031)"><text font-family="Arial" font-size="12px" font-style="normal" font-weight="normal" text-decoration="none" text-anchor="middle" fill="rgb(0, 0, 0)" fill-opacity="1" dy="0.90625em" transform="" data-sketchy-clip-path="ygc312_1_0" style="font-style: normal;font-weight: 400;font-size: 12px;font-family: Comic Sans MS, cursive;" stroke="none" stroke-width="1px" dominant-baseline="auto">dataset</text></g></g><g clip-path="url(#ygc312_1_0)"><path d="M179.454 215.118 L183.463 214.224 L194.751 211.911 L208.356 213.311 L218.195 213.269 L221.659 216.195 L219.984 229.76 L215.88 232.036 L208.566 234.661 L195.666 231.415 L183.347 230.339 L179.61 230.614 L182.943 216.193" stroke="none" stroke-width="0" fill="rgb(210, 222, 238)"/><path d="M181.4 215.2 M181.4 215.2 C183.572 208.641, 221.041 210.271, 221.4 215.2 M181.4 215.2 C184.829 212.373, 219.119 209.574, 221.4 215.2 M221.4 215.2 C220.682 219.282, 221.109 221.057, 221.4 229.6 M221.4 215.2 C221.177 219.584, 221.191 222.406, 221.4 229.6 M221.4 229.6 C218.333 235.746, 181.574 234.171, 181.4 229.6 M221.4 229.6 C221.888 236.627, 180.845 234.94, 181.4 229.6 M181.4 229.6 C180.208 225.525, 182.657 219.327, 181.4 215.2 M181.4 229.6 C180.851 225.285, 180.846 220.736, 181.4 215.2" stroke="rgb(0, 0, 0)" stroke-width="0.8" fill="none"/></g><g clip-path="url(#ygc312_1_0)"><path d="M220.817 216.31 L213.665 217.225 L203.037 219.557 L189.028 218.466 L182.798 216.515" stroke="none" stroke-width="0" fill="rgb(210, 222, 238)"/><path d="M221.4 215.2 M221.4 215.2 C221.078 219.288, 184.061 218.45, 181.4 215.2" stroke="rgb(0, 0, 0)" stroke-width="0.8" fill="none"/></g><g clip-path="url(#ygc312_1_0)"><g class="text-container" transform="matrix(0.8 0 0 0.8 201.4 217.031)"><text font-family="Arial" font-size="12px" font-style="normal" font-weight="normal" text-decoration="none" text-anchor="middle" fill="rgb(0, 0, 0)" fill-opacity="1" dy="0.90625em" transform="" data-sketchy-clip-path="ygc312_1_0" style="font-style: normal;font-weight: 400;font-size: 12px;font-family: Comic Sans MS, cursive;" stroke="none" stroke-width="1px" dominant-baseline="auto">final dataset</text></g></g><g clip-path="url(#ygc312_1_0)"><path d="M182.781 270.53 L185.084 270.337 L194.797 267.418 L207.655 268.34 L218.681 271.297 L222.29 270.702 L222.887 284.63 L217.307 288.577 L209.827 289.389 L194.08 291.395 L182.466 286.702 L182.288 286.766 L181.019 272.627" stroke="none" stroke-width="0" fill="rgb(210, 222, 238)"/><path d="M181.4 272.2 M181.4 272.2 C182.405 266.623, 218.343 267.978, 221.4 272.2 M221.4 272.2 C222.481 277.353, 220.467 281.094, 221.4 286.6 M221.4 286.6 C221.639 289.555, 182.305 291.596, 181.4 286.6 M181.4 286.6 C182.339 282.98, 181.805 277.098, 181.4 272.2" stroke="rgb(0, 0, 0)" stroke-width="0.8" fill="none"/></g><g clip-path="url(#ygc312_1_0)"><path d="M222.928 271.501 L214.157 274.716 L200.996 276.888 L188.995 274.89 L181.099 274.002" stroke="none" stroke-width="0" fill="rgb(210, 222, 238)"/><path d="M221.4 272.2 M221.4 272.2 C220.164 278.835, 180.631 275.582, 181.4 272.2" stroke="rgb(0, 0, 0)" stroke-width="0.8" fill="none"/></g><g clip-path="url(#ygc312_1_0)"><g class="text-container" transform="matrix(0.8 0 0 0.8 201.4 274.031)"><text font-family="Arial" font-size="12px" font-style="normal" font-weight="normal" text-decoration="none" text-anchor="middle" fill="rgb(0, 0, 0)" fill-opacity="1" dy="0.90625em" transform="" data-sketchy-clip-path="ygc312_1_0" style="font-style: normal;font-weight: 400;font-size: 12px;font-family: Comic Sans MS, cursive;" stroke="none" stroke-width="1px" dominant-baseline="auto">summary (iCalendar)</text></g></g><g clip-path="url(#ygc312_1_0)"><path d="M300.744 45.504 L306.43 43.047 L313.383 40.563 L328.058 39.408 L340.142 41.411 L341.065 43.478 L340.44 57.869 L336.294 60.588 L330.446 62.215 L313.741 61.33 L304.803 59.679 L303.691 58.092 L303.932 42.213" stroke="none" stroke-width="0" fill="rgb(210, 222, 238)"/><path d="M302 44.2 M302 44.2 C304.411 40.954, 340.553 37.761, 342 44.2 M342 44.2 C342.936 47.864, 340.788 52.833, 342 58.6 M342 58.6 C340.713 62.165, 301.468 63.683, 302 58.6 M302 58.6 C302.848 56.372, 301.71 50.856, 302 44.2" stroke="rgb(0, 0, 0)" stroke-width="0.8" fill="none"/></g><g clip-path="url(#ygc312_1_0)"><path d="M341.67 43.948 L334.587 46.583 L320.567 47.605 L309.259 45.979 L302.971 44.442" stroke="none" stroke-width="0" fill="rgb(210, 222, 238)"/><path d="M342 44.2 M342 44.2 C339.802 48.502, 304.168 50.572, 302 44.2" stroke="rgb(0, 0, 0)" stroke-width="0.8" fill="none"/></g><g clip-path="url(#ygc312_1_0)"><g class="text-container" transform="matrix(0.8 0 0 0.8 322 46.0312)"><text font-family="Arial" font-size="12px" font-style="normal" font-weight="normal" text-decoration="none" text-anchor="middle" fill="rgb(0, 0, 0)" fill-opacity="1" dy="0.90625em" transform="" data-sketchy-clip-path="ygc312_1_0" style="font-style: normal;font-weight: 400;font-size: 12px;font-family: Comic Sans MS, cursive;" stroke="none" stroke-width="1px" dominant-baseline="auto">Calendar</text></g></g><g clip-path="url(#ygc312_1_0)"><path d="M322.212 243.441 L315.242 242.245 L307.431 236.565 L302.152 230.92 L303.172 223.071 L301.929 215.815 L306.224 210.042 L312.467 205.909 L320.848 200.917 L330.832 205.228 L334.573 209.44 L341.095 213.088 L343.174 220.551 L340.641 228.352 L337.906 235.529 L330.81 241.294 L320.211 240.503" stroke="none" stroke-width="0" fill="rgb(210, 222, 238)"/><path d="M322 242.4 M322 242.4 C311.121 242.672, 302.37 233.169, 302 222.4 M302 222.4 C302.857 213.162, 309.799 203.602, 322 202.4 M322 202.4 C332.416 203.248, 343.398 212.413, 342 222.4 M342 222.4 C342.006 231.88, 331.243 243.329, 322 242.4 M322 242.4 C322 242.4, 322 242.4, 322 242.4" stroke="rgb(0, 0, 0)" stroke-width="0.8" fill="none"/></g><g clip-path="url(#ygc312_1_0)"><g class="text-container" transform="matrix(0.8 0 0 0.8 322 217.031)"><text font-family="Arial" font-size="12px" font-style="normal" font-weight="normal" text-decoration="none" text-anchor="middle" fill="rgb(0, 0, 0)" fill-opacity="1" dy="0.90625em" transform="" data-sketchy-clip-path="ygc312_1_0" style="font-style: normal;font-weight: 400;font-size: 12px;font-family: Comic Sans MS, cursive;" stroke="none" stroke-width="1px" dominant-baseline="auto">client</text></g></g><g clip-path="url(#ygc312_1_0)"><g class="text-container" transform="matrix(0.0216185 -0.799708 0.799708 0.0216185 47.3956 104.306)"><text font-family="Arial" font-size="12px" font-style="normal" font-weight="normal" text-decoration="none" text-anchor="middle" fill="rgb(0, 0, 0)" fill-opacity="1" dy="0.90625em" transform="" data-sketchy-clip-path="ygc312_1_0" style="font-style: normal;font-weight: 400;font-size: 12px;font-family: Comic Sans MS, cursive;" stroke="none" stroke-width="1px" dominant-baseline="auto">Sends emails</text></g></g><g clip-path="url(#ygc312_1_0)"><g class="text-container" transform="matrix(0.551215 -0.579794 0.579794 0.551215 133.935 100.638)"><text font-family="Arial" font-size="12px" font-style="normal" font-weight="normal" text-decoration="none" text-anchor="middle" fill="rgb(0, 0, 0)" fill-opacity="1" dy="0.90625em" transform="" data-sketchy-clip-path="ygc312_1_0" style="font-style: normal;font-weight: 400;font-size: 12px;font-family: Comic Sans MS, cursive;" stroke="none" stroke-width="1px" dominant-baseline="auto">Pops emails</text></g></g><g clip-path="url(#ygc312_1_0)"><g class="text-container" transform="matrix(0.8 9.79717e-17 -9.79717e-17 0.8 177.4 77.7783)"><text font-family="Arial" font-size="12px" font-style="normal" font-weight="normal" text-decoration="none" text-anchor="middle" fill="rgb(0, 0, 0)" fill-opacity="1" dy="0.90625em" transform="" data-sketchy-clip-path="ygc312_1_0" style="font-style: normal;font-weight: 400;font-size: 12px;font-family: Comic Sans MS, cursive;" stroke="none" stroke-width="1px" dominant-baseline="auto">produces</text></g></g><g clip-path="url(#ygc312_1_0)"><g class="text-container" transform="matrix(0.8 9.79717e-17 -9.79717e-17 0.8 176.2 134.127)"><text font-family="Arial" font-size="12px" font-style="normal" font-weight="normal" text-decoration="none" text-anchor="middle" fill="rgb(0, 0, 0)" fill-opacity="1" dy="0.90625em" transform="" data-sketchy-clip-path="ygc312_1_0" style="font-style: normal;font-weight: 400;font-size: 12px;font-family: Comic Sans MS, cursive;" stroke="none" stroke-width="1px" dominant-baseline="auto">converted</text></g></g><g clip-path="url(#ygc312_1_0)"><g class="text-container" transform="matrix(0.8 9.79717e-17 -9.79717e-17 0.8 157.8 186.631)"><text font-family="Arial" font-size="12px" font-style="normal" font-weight="normal" text-decoration="none" text-anchor="middle" fill="rgb(0, 0, 0)" fill-opacity="1" dy="0.90625em" transform="" data-sketchy-clip-path="ygc312_1_0" style="font-style: normal;font-weight: 400;font-size: 12px;font-family: Comic Sans MS, cursive;" stroke="none" stroke-width="1px" dominant-baseline="auto">filtered, moderated</text></g></g><g clip-path="url(#ygc312_1_0)"><g class="text-container" transform="matrix(0.8 9.79717e-17 -9.79717e-17 0.8 148.2 243.631)"><text font-family="Arial" font-size="12px" font-style="normal" font-weight="normal" text-decoration="none" text-anchor="middle" fill="rgb(0, 0, 0)" fill-opacity="1" dy="0.90625em" transform="" data-sketchy-clip-path="ygc312_1_0" style="font-style: normal;font-weight: 400;font-size: 12px;font-family: Comic Sans MS, cursive;" stroke="none" stroke-width="1px" dominant-baseline="auto">prompted via ChatGPT</text></g></g><g clip-path="url(#ygc312_1_0)"><g class="text-container" transform="matrix(0.374054 -0.707166 0.707166 0.374054 264.552 169.058)"><text font-family="Arial" font-size="12px" font-style="normal" font-weight="normal" text-decoration="none" text-anchor="middle" fill="rgb(0, 0, 0)" fill-opacity="1" dy="0.90625em" transform="" data-sketchy-clip-path="ygc312_1_0" style="font-style: normal;font-weight: 400;font-size: 12px;font-family: Comic Sans MS, cursive;" stroke="none" stroke-width="1px" dominant-baseline="auto">merged events</text></g></g><g clip-path="url(#ygc312_1_0)"><g class="text-container" transform="matrix(4.89859e-17 -0.8 0.8 4.89859e-17 326.231 134.2)"><text font-family="Arial" font-size="12px" font-style="normal" font-weight="normal" text-decoration="none" text-anchor="middle" fill="rgb(0, 0, 0)" fill-opacity="1" dy="0.90625em" transform="" data-sketchy-clip-path="ygc312_1_0" style="font-style: normal;font-weight: 400;font-size: 12px;font-family: Comic Sans MS, cursive;" stroke="none" stroke-width="1px" dominant-baseline="auto">subscribes (raw content)</text></g></g></svg>